<svg width="16" height="16" viewBox="0 0 16 16" fill="none" xmlns="http://www.w3.org/2000/svg">
<path d="M13.587 11.4426C13.9434 11.4426 14.2656 11.1641 14.2656 10.7534C14.2656 10.3496 13.9434 10.0711 13.587 10.0711H5.79949C5.51157 10.0711 5.32648 9.86226 5.28535 9.54898L5.17566 8.83889H13.6624C14.7455 8.83889 15.3213 8.17752 15.479 7.07757L15.9726 3.71507C15.9863 3.6176 16 3.49925 16 3.41571C16 2.9632 15.7052 2.64993 15.1637 2.64993H4.30506L4.20908 1.97464C4.11997 1.3272 3.84576 1 3.03685 1H0.733505C0.335904 1 0 1.34112 0 1.75186C0 2.15564 0.335904 2.49677 0.733505 2.49677H2.76949L3.80463 9.69518C3.9623 10.7812 4.53813 11.4426 5.62125 11.4426H13.587ZM6.19023 15C6.88261 15 7.43788 14.4361 7.43788 13.733C7.43788 13.0298 6.88261 12.4659 6.19023 12.4659C5.49786 12.4659 4.94259 13.0298 4.94259 13.733C4.94259 14.4361 5.49786 15 6.19023 15ZM12.4764 15C13.1688 15 13.7241 14.4361 13.7241 13.733C13.7241 13.0298 13.1688 12.4659 12.4764 12.4659C11.7841 12.4659 11.2219 13.0298 11.2219 13.733C11.2219 14.4361 11.7841 15 12.4764 15Z" fill="white"/>
</svg>
